<?xml version="1.0" encoding="UTF-8"?>
<svg id="Layer_2" xmlns="http://www.w3.org/2000/svg" viewBox="0 0 208.97 170.9">
  <defs>
    <style>
      .cls-1 {
        fill: #09f;
      }

      .cls-2 {
        fill: #fff;
      }

      .cls-3 {
        fill: #8736d6;
      }
    </style>
  </defs>
  <g id="Layer_1-2" data-name="Layer_1">
    <g>
      <path class="cls-1" d="M16.3,101.97l155,13.56c6.19.54,11.38-4.64,10.83-10.83l-7.17-82.01c-.42-4.83-4.26-8.67-9.09-9.09L10.87.04C4.68-.5-.5,4.68.04,10.87l7.17,82.01c.42,4.83,4.26,8.67,9.09,9.09Z"/>
      <g>
        <path class="cls-2" d="M27.47,73.09l1.36-7.62h2.78l.83-4.73,11.76-2.95-1.36,7.68h3.9l-1.36,7.62h-3.9l-2.36,13.47c.98.2,2.07.34,3.25.41l-2.01,8.69c-5.52,0-9.06-.37-10.63-1.12-1.65-.83-2.48-2.11-2.48-3.84,0-.2.04-.61.12-1.24l2.89-16.37h-2.78Z"/>
        <path class="cls-2" d="M79.4,66.94l-4.9,28.06h-5.61l-2.66-3.37c-1.26,1.38-2.53,2.43-3.81,3.16-1.28.73-2.92,1.09-4.93,1.09-3.54,0-6.08-.98-7.59-2.95-1.52-1.97-2.27-4.53-2.27-7.68,0-5.63,1.51-10.49,4.52-14.56,3.01-4.08,7.2-6.11,12.55-6.11,4.53,0,9.43.79,14.71,2.36ZM61.02,75.69l-2.01,11.58h1.71c.87,0,1.54-.03,2.01-.09.47-.06.94-.26,1.39-.59.45-.33.74-.82.86-1.45l2.13-11.93h-1.77c-1.34,0-2.34.15-3.01.44-.67.3-1.1.97-1.3,2.04Z"/>
        <path class="cls-2" d="M81.88,93.53l6.5-36.93,11.4-.89-1.77,9.81c1.54-.63,3.47-.95,5.79-.95,6.54,0,9.81,3.62,9.81,10.87,0,7.96-2.44,13.79-7.33,17.49-2.6,1.97-5.77,2.95-9.51,2.95-5.67,0-10.63-.79-14.89-2.36ZM96.29,75.39l-2.07,11.87h1.77c1.34,0,2.33-.15,2.98-.44.65-.3,1.07-.98,1.27-2.04l2.07-11.58h-1.71c-1.62,0-2.7.21-3.25.62-.55.41-.91.94-1.06,1.57Z"/>
        <path class="cls-2" d="M133.93,55.72l-5.44,30.84c1.14.24,2.03.37,2.66.41l-2.01,8.69c-5.2,0-8.57-.37-10.1-1.12-.67-.35-1.24-.86-1.71-1.51-.47-.65-.71-1.25-.71-1.8s.04-1.14.12-1.77l5.79-32.85,11.4-.89Z"/>
        <path class="cls-2" d="M147.04,84.96l-.35,2.07c1.1.12,2.22.18,3.37.18,3.62,0,7.23-.59,10.81-1.77l-.18,8.69c-4.37,1.18-8.68,1.77-12.94,1.77-8.27,0-12.41-3.58-12.41-10.75,0-8.11,2.48-14,7.44-17.66,2.68-1.93,5.91-2.9,9.69-2.9,4.92,0,8.35.52,10.28,1.57,1.93,1.04,2.89,2.81,2.89,5.29s-.31,4.51-.92,6.09c-.61,1.58-1.41,2.84-2.39,3.78-.98.95-2.3,1.69-3.96,2.25-2.84.87-6.62,1.34-11.34,1.42ZM148.7,75.69l-.41,2.42h2.3c1.3,0,2.28-.15,2.95-.44.67-.3,1.1-.97,1.3-2.04l.47-2.42h-2.3c-1.34,0-2.34.15-3.01.44-.67.3-1.1.97-1.3,2.04Z"/>
      </g>
      <g>
        <path class="cls-2" d="M48.33,23.76h-8.15l-4.79,27.47h-11.23l4.79-27.47h-8.09l1.71-9.45h27.47l-1.71,9.45Z"/>
        <path class="cls-2" d="M48.15,51.23l4.9-28.06,11.52-1.48-5.2,29.54h-11.23ZM53.53,17.73c0-2.28.6-3.92,1.8-4.9,1.2-.98,2.94-1.48,5.23-1.48s3.83.25,4.64.74c.81.49,1.21,1.31,1.21,2.45,0,2.32-.52,3.95-1.57,4.87-1.04.93-2.78,1.39-5.2,1.39s-4.05-.23-4.87-.68c-.83-.45-1.24-1.25-1.24-2.39Z"/>
        <path class="cls-2" d="M86.26,30.55h-.77c-.87,0-1.57.04-2.1.12-.53.08-1.07.33-1.62.74-.55.41-.91,1.03-1.06,1.86l-3.13,17.96h-11.23l5.2-29.54h5.61l2.07,2.72c1.22-1.1,2.78-1.98,4.67-2.63,1.89-.65,3.82-.98,5.79-.98,3.5,0,5.95.81,7.33,2.42,2.52-1.61,5.32-2.42,8.39-2.42,6.03,0,9.04,1.85,9.04,5.55,0,.28-.04.69-.12,1.24l-4.14,23.63h-11.23l3.6-20.68h-.77c-2.88,0-4.45.79-4.73,2.36l-3.19,18.31h-11.23l3.6-20.68Z"/>
        <path class="cls-2" d="M128.97,41.19l-.35,2.07c1.1.12,2.22.18,3.37.18,3.62,0,7.23-.59,10.81-1.77l-.18,8.69c-4.37,1.18-8.68,1.77-12.94,1.77-8.27,0-12.41-3.58-12.41-10.75,0-8.11,2.48-14,7.44-17.66,2.68-1.93,5.91-2.9,9.69-2.9,4.92,0,8.35.52,10.28,1.57,1.93,1.04,2.89,2.81,2.89,5.29s-.31,4.51-.92,6.09c-.61,1.58-1.41,2.84-2.39,3.78-.98.95-2.3,1.69-3.96,2.25-2.84.87-6.62,1.34-11.34,1.42ZM130.63,31.91l-.41,2.42h2.3c1.3,0,2.28-.15,2.95-.44.67-.3,1.1-.97,1.3-2.04l.47-2.42h-2.3c-1.34,0-2.34.15-3.01.44-.67.3-1.1.97-1.3,2.04Z"/>
      </g>
      <path class="cls-3" d="M195.96,162.94l-90.46,7.91c-6.19.54-11.38-4.64-10.83-10.83l3.88-44.35c.42-4.83,4.26-8.67,9.09-9.09l90.46-7.91c6.19-.54,11.38,4.64,10.83,10.83l-3.88,44.35c-.42,4.83-4.26,8.67-9.09,9.09Z"/>
      <g>
        <path class="cls-2" d="M133.17,124.37l-8.12.71-2.37,27.79-11.18.98,2.37-27.79-8.06.71.88-9.57,27.37-2.39-.88,9.57Z"/>
        <path class="cls-2" d="M163.78,121.1l-2.44,28.38-5.59.49-2.94-3.12c-1.14,1.48-2.31,2.64-3.52,3.48-1.21.84-2.82,1.34-4.82,1.52-3.53.31-6.14-.45-7.82-2.28-1.68-1.83-2.66-4.31-2.94-7.45-.49-5.61.59-10.58,3.23-14.9,2.65-4.32,6.64-6.72,11.97-7.19,4.51-.39,9.47-.04,14.86,1.07ZM146.24,131.41l-.99,11.71,1.71-.15c.86-.08,1.53-.16,1.99-.26.47-.1.91-.34,1.33-.71.42-.37.66-.88.73-1.52l1.08-12.07-1.77.15c-1.33.12-2.32.35-2.96.7-.64.35-1.01,1.07-1.12,2.14Z"/>
        <path class="cls-2" d="M198.39,118.07l-2.44,28.38c-.28,3.19-1.24,5.69-2.9,7.52-1.66,1.83-3.9,2.86-6.73,3.11l-15.71,1.37.68-7.77,10.6-1.52c1.8-.24,2.77-1.11,2.91-2.63l.04-.89c-1.48.72-3.36,1.18-5.63,1.38-3.61.32-6.26-.4-7.96-2.15-1.7-1.75-2.67-4.08-2.92-6.98-.46-5.3.69-9.99,3.45-14.09,2.76-4.1,6.77-6.37,12-6.83,5.24-.46,10.1-.09,14.6,1.1ZM180.91,128.38l-.91,9.93,1.71-.15c.86-.08,1.53-.16,1.99-.26.47-.1.91-.34,1.33-.71.42-.37.66-.88.73-1.52l1-10.29-1.77.15c-1.33.12-2.32.35-2.96.7-.64.35-1.01,1.07-1.12,2.14Z"/>
      </g>
    </g>
  </g>
</svg>